<mxfile host="app.diagrams.net" modified="2024-04-01T20:47:51.673Z" agent="Mozilla/5.0 (Windows NT 10.0; Win64; x64) AppleWebKit/537.36 (KHTML, like Gecko) Chrome/123.0.0.0 Safari/537.36" etag="G1JjY_-m5Nykg-iaD9WH" version="24.2.1" type="device">
  <diagram name="Страница — 1" id="kNyYjeBWwHAZmhjeRnF6">
    <mxGraphModel dx="1687" dy="918" grid="1" gridSize="10" guides="1" tooltips="1" connect="1" arrows="1" fold="1" page="1" pageScale="1" pageWidth="827" pageHeight="1169" math="0" shadow="0">
      <root>
        <mxCell id="0" />
        <mxCell id="1" parent="0" />
        <mxCell id="RflRNiIDHvQTLD1srXch-16" style="edgeStyle=orthogonalEdgeStyle;rounded=0;orthogonalLoop=1;jettySize=auto;html=1;" edge="1" parent="1" source="RflRNiIDHvQTLD1srXch-1" target="RflRNiIDHvQTLD1srXch-6">
          <mxGeometry relative="1" as="geometry" />
        </mxCell>
        <mxCell id="RflRNiIDHvQTLD1srXch-1" value="Start" style="rounded=1;whiteSpace=wrap;html=1;" vertex="1" parent="1">
          <mxGeometry x="310" y="40" width="120" height="50" as="geometry" />
        </mxCell>
        <mxCell id="RflRNiIDHvQTLD1srXch-17" style="edgeStyle=orthogonalEdgeStyle;rounded=0;orthogonalLoop=1;jettySize=auto;html=1;entryX=0.5;entryY=0;entryDx=0;entryDy=0;" edge="1" parent="1" source="RflRNiIDHvQTLD1srXch-6" target="RflRNiIDHvQTLD1srXch-9">
          <mxGeometry relative="1" as="geometry" />
        </mxCell>
        <mxCell id="RflRNiIDHvQTLD1srXch-6" value="Enter amount of elements, n_el" style="rounded=0;whiteSpace=wrap;html=1;" vertex="1" parent="1">
          <mxGeometry x="310" y="130" width="120" height="60" as="geometry" />
        </mxCell>
        <mxCell id="RflRNiIDHvQTLD1srXch-9" value="Is n_el ok?" style="rhombus;whiteSpace=wrap;html=1;" vertex="1" parent="1">
          <mxGeometry x="320" y="230" width="100" height="90" as="geometry" />
        </mxCell>
        <mxCell id="RflRNiIDHvQTLD1srXch-13" value="" style="edgeStyle=orthogonalEdgeStyle;rounded=0;orthogonalLoop=1;jettySize=auto;html=1;" edge="1" parent="1" source="RflRNiIDHvQTLD1srXch-9" target="RflRNiIDHvQTLD1srXch-12">
          <mxGeometry relative="1" as="geometry">
            <mxPoint x="610" y="275" as="targetPoint" />
            <mxPoint x="420" y="275" as="sourcePoint" />
          </mxGeometry>
        </mxCell>
        <mxCell id="RflRNiIDHvQTLD1srXch-15" style="edgeStyle=orthogonalEdgeStyle;rounded=0;orthogonalLoop=1;jettySize=auto;html=1;entryX=0;entryY=0.5;entryDx=0;entryDy=0;" edge="1" parent="1" source="RflRNiIDHvQTLD1srXch-12" target="RflRNiIDHvQTLD1srXch-14">
          <mxGeometry relative="1" as="geometry" />
        </mxCell>
        <mxCell id="RflRNiIDHvQTLD1srXch-12" value="Wrong user input" style="shape=document;whiteSpace=wrap;html=1;boundedLbl=1;" vertex="1" parent="1">
          <mxGeometry x="510" y="235" width="120" height="80" as="geometry" />
        </mxCell>
        <mxCell id="RflRNiIDHvQTLD1srXch-14" value="End" style="rounded=1;whiteSpace=wrap;html=1;" vertex="1" parent="1">
          <mxGeometry x="670" y="252.5" width="120" height="45" as="geometry" />
        </mxCell>
        <mxCell id="RflRNiIDHvQTLD1srXch-18" style="edgeStyle=orthogonalEdgeStyle;rounded=0;orthogonalLoop=1;jettySize=auto;html=1;entryX=0.417;entryY=0;entryDx=0;entryDy=0;entryPerimeter=0;" edge="1" parent="1" source="RflRNiIDHvQTLD1srXch-9">
          <mxGeometry relative="1" as="geometry">
            <mxPoint x="370.03999999999996" y="360" as="targetPoint" />
          </mxGeometry>
        </mxCell>
        <mxCell id="RflRNiIDHvQTLD1srXch-20" value="Yes" style="edgeLabel;html=1;align=center;verticalAlign=middle;resizable=0;points=[];" vertex="1" connectable="0" parent="RflRNiIDHvQTLD1srXch-18">
          <mxGeometry x="-0.0491" y="-1" relative="1" as="geometry">
            <mxPoint x="-19" y="-9" as="offset" />
          </mxGeometry>
        </mxCell>
        <mxCell id="RflRNiIDHvQTLD1srXch-19" value="No" style="text;html=1;align=center;verticalAlign=middle;resizable=0;points=[];autosize=1;strokeColor=none;fillColor=none;" vertex="1" parent="1">
          <mxGeometry x="430" y="248" width="40" height="30" as="geometry" />
        </mxCell>
        <mxCell id="RflRNiIDHvQTLD1srXch-23" style="edgeStyle=orthogonalEdgeStyle;rounded=0;orthogonalLoop=1;jettySize=auto;html=1;entryX=0.5;entryY=0;entryDx=0;entryDy=0;" edge="1" parent="1" target="RflRNiIDHvQTLD1srXch-24">
          <mxGeometry relative="1" as="geometry">
            <mxPoint x="370" y="470" as="targetPoint" />
            <mxPoint x="370" y="410" as="sourcePoint" />
          </mxGeometry>
        </mxCell>
        <mxCell id="RflRNiIDHvQTLD1srXch-25" style="edgeStyle=orthogonalEdgeStyle;rounded=0;orthogonalLoop=1;jettySize=auto;html=1;" edge="1" parent="1" source="RflRNiIDHvQTLD1srXch-24">
          <mxGeometry relative="1" as="geometry">
            <mxPoint x="370" y="600" as="targetPoint" />
          </mxGeometry>
        </mxCell>
        <mxCell id="RflRNiIDHvQTLD1srXch-30" style="edgeStyle=orthogonalEdgeStyle;rounded=0;orthogonalLoop=1;jettySize=auto;html=1;" edge="1" parent="1" source="RflRNiIDHvQTLD1srXch-24">
          <mxGeometry relative="1" as="geometry">
            <mxPoint x="500" y="510" as="targetPoint" />
          </mxGeometry>
        </mxCell>
        <mxCell id="RflRNiIDHvQTLD1srXch-24" value="i &amp;gt;= n_el?" style="rhombus;whiteSpace=wrap;html=1;" vertex="1" parent="1">
          <mxGeometry x="312.5" y="460" width="115" height="100" as="geometry" />
        </mxCell>
        <mxCell id="RflRNiIDHvQTLD1srXch-26" value="Yes" style="edgeLabel;html=1;align=center;verticalAlign=middle;resizable=0;points=[];" vertex="1" connectable="0" parent="1">
          <mxGeometry x="390" y="440" as="geometry">
            <mxPoint x="-41" y="130" as="offset" />
          </mxGeometry>
        </mxCell>
        <mxCell id="RflRNiIDHvQTLD1srXch-27" value="No" style="text;html=1;align=center;verticalAlign=middle;resizable=0;points=[];autosize=1;strokeColor=none;fillColor=none;" vertex="1" parent="1">
          <mxGeometry x="440" y="480" width="40" height="30" as="geometry" />
        </mxCell>
        <mxCell id="RflRNiIDHvQTLD1srXch-32" style="edgeStyle=orthogonalEdgeStyle;rounded=0;orthogonalLoop=1;jettySize=auto;html=1;" edge="1" parent="1" source="RflRNiIDHvQTLD1srXch-31">
          <mxGeometry relative="1" as="geometry">
            <mxPoint x="370" y="440" as="targetPoint" />
            <Array as="points">
              <mxPoint x="560" y="440" />
            </Array>
          </mxGeometry>
        </mxCell>
        <mxCell id="RflRNiIDHvQTLD1srXch-31" value="Enter element&lt;br&gt;Add to arr&lt;div&gt;i++&lt;/div&gt;" style="rounded=0;whiteSpace=wrap;html=1;" vertex="1" parent="1">
          <mxGeometry x="500" y="480" width="120" height="60" as="geometry" />
        </mxCell>
        <mxCell id="RflRNiIDHvQTLD1srXch-34" value="Print output" style="shape=document;whiteSpace=wrap;html=1;boundedLbl=1;" vertex="1" parent="1">
          <mxGeometry x="320" y="940" width="120" height="80" as="geometry" />
        </mxCell>
        <mxCell id="RflRNiIDHvQTLD1srXch-47" style="edgeStyle=orthogonalEdgeStyle;rounded=0;orthogonalLoop=1;jettySize=auto;html=1;exitX=0.497;exitY=1.022;exitDx=0;exitDy=0;entryX=0.5;entryY=0;entryDx=0;entryDy=0;exitPerimeter=0;" edge="1" parent="1" source="RflRNiIDHvQTLD1srXch-63" target="RflRNiIDHvQTLD1srXch-42">
          <mxGeometry relative="1" as="geometry">
            <mxPoint x="370" y="660" as="sourcePoint" />
          </mxGeometry>
        </mxCell>
        <mxCell id="RflRNiIDHvQTLD1srXch-40" style="edgeStyle=orthogonalEdgeStyle;rounded=0;orthogonalLoop=1;jettySize=auto;html=1;entryX=0.417;entryY=-0.025;entryDx=0;entryDy=0;entryPerimeter=0;" edge="1" parent="1" source="RflRNiIDHvQTLD1srXch-42" target="RflRNiIDHvQTLD1srXch-34">
          <mxGeometry relative="1" as="geometry">
            <mxPoint x="370" y="860" as="targetPoint" />
          </mxGeometry>
        </mxCell>
        <mxCell id="RflRNiIDHvQTLD1srXch-41" style="edgeStyle=orthogonalEdgeStyle;rounded=0;orthogonalLoop=1;jettySize=auto;html=1;" edge="1" parent="1" source="RflRNiIDHvQTLD1srXch-42">
          <mxGeometry relative="1" as="geometry">
            <mxPoint x="500" y="770" as="targetPoint" />
          </mxGeometry>
        </mxCell>
        <mxCell id="RflRNiIDHvQTLD1srXch-42" value="i &amp;gt;= n_el?" style="rhombus;whiteSpace=wrap;html=1;" vertex="1" parent="1">
          <mxGeometry x="312.5" y="720" width="115" height="100" as="geometry" />
        </mxCell>
        <mxCell id="RflRNiIDHvQTLD1srXch-43" value="No" style="text;html=1;align=center;verticalAlign=middle;resizable=0;points=[];autosize=1;strokeColor=none;fillColor=none;" vertex="1" parent="1">
          <mxGeometry x="440" y="740" width="40" height="30" as="geometry" />
        </mxCell>
        <mxCell id="RflRNiIDHvQTLD1srXch-60" style="edgeStyle=orthogonalEdgeStyle;rounded=0;orthogonalLoop=1;jettySize=auto;html=1;exitX=0.5;exitY=1;exitDx=0;exitDy=0;entryX=0.5;entryY=1;entryDx=0;entryDy=0;" edge="1" parent="1" source="RflRNiIDHvQTLD1srXch-46" target="RflRNiIDHvQTLD1srXch-55">
          <mxGeometry relative="1" as="geometry" />
        </mxCell>
        <mxCell id="RflRNiIDHvQTLD1srXch-46" value="Add arr[i] to output" style="rounded=0;whiteSpace=wrap;html=1;" vertex="1" parent="1">
          <mxGeometry x="500" y="850" width="120" height="60" as="geometry" />
        </mxCell>
        <mxCell id="RflRNiIDHvQTLD1srXch-48" value="Yes" style="edgeLabel;html=1;align=center;verticalAlign=middle;resizable=0;points=[];" vertex="1" connectable="0" parent="1">
          <mxGeometry x="410" y="720" as="geometry">
            <mxPoint x="-53" y="118" as="offset" />
          </mxGeometry>
        </mxCell>
        <mxCell id="RflRNiIDHvQTLD1srXch-50" style="edgeStyle=orthogonalEdgeStyle;rounded=0;orthogonalLoop=1;jettySize=auto;html=1;exitX=0.5;exitY=1;exitDx=0;exitDy=0;entryX=0.5;entryY=0;entryDx=0;entryDy=0;" edge="1" parent="1" source="RflRNiIDHvQTLD1srXch-49" target="RflRNiIDHvQTLD1srXch-46">
          <mxGeometry relative="1" as="geometry" />
        </mxCell>
        <mxCell id="RflRNiIDHvQTLD1srXch-56" style="edgeStyle=orthogonalEdgeStyle;rounded=0;orthogonalLoop=1;jettySize=auto;html=1;exitX=1;exitY=0.5;exitDx=0;exitDy=0;entryX=0;entryY=0.5;entryDx=0;entryDy=0;" edge="1" parent="1" source="RflRNiIDHvQTLD1srXch-49" target="RflRNiIDHvQTLD1srXch-55">
          <mxGeometry relative="1" as="geometry" />
        </mxCell>
        <mxCell id="RflRNiIDHvQTLD1srXch-49" value="arr[i].Length &amp;lt;= 3" style="rhombus;whiteSpace=wrap;html=1;" vertex="1" parent="1">
          <mxGeometry x="500" y="720" width="115" height="100" as="geometry" />
        </mxCell>
        <mxCell id="RflRNiIDHvQTLD1srXch-52" value="Yes" style="edgeLabel;html=1;align=center;verticalAlign=middle;resizable=0;points=[];" vertex="1" connectable="0" parent="1">
          <mxGeometry x="400" y="570" as="geometry">
            <mxPoint x="147" y="260" as="offset" />
          </mxGeometry>
        </mxCell>
        <mxCell id="RflRNiIDHvQTLD1srXch-59" style="edgeStyle=orthogonalEdgeStyle;rounded=0;orthogonalLoop=1;jettySize=auto;html=1;exitX=1;exitY=0.5;exitDx=0;exitDy=0;" edge="1" parent="1" source="RflRNiIDHvQTLD1srXch-55">
          <mxGeometry relative="1" as="geometry">
            <mxPoint x="370" y="690" as="targetPoint" />
            <Array as="points">
              <mxPoint x="690" y="770" />
              <mxPoint x="690" y="690" />
            </Array>
          </mxGeometry>
        </mxCell>
        <mxCell id="RflRNiIDHvQTLD1srXch-55" value="i++" style="rounded=0;whiteSpace=wrap;html=1;" vertex="1" parent="1">
          <mxGeometry x="650" y="740" width="70" height="60" as="geometry" />
        </mxCell>
        <mxCell id="RflRNiIDHvQTLD1srXch-58" value="No" style="text;html=1;align=center;verticalAlign=middle;resizable=0;points=[];autosize=1;strokeColor=none;fillColor=none;" vertex="1" parent="1">
          <mxGeometry x="610" y="740" width="40" height="30" as="geometry" />
        </mxCell>
        <mxCell id="RflRNiIDHvQTLD1srXch-62" value="i = 0&lt;div&gt;Declare Array with length n_el, arr&amp;nbsp;&lt;/div&gt;" style="shape=parallelogram;perimeter=parallelogramPerimeter;whiteSpace=wrap;html=1;fixedSize=1;" vertex="1" parent="1">
          <mxGeometry x="300" y="360" width="127.5" height="50" as="geometry" />
        </mxCell>
        <mxCell id="RflRNiIDHvQTLD1srXch-63" value="i = 0&lt;br&gt;declare sorted data, output" style="shape=parallelogram;perimeter=parallelogramPerimeter;whiteSpace=wrap;html=1;fixedSize=1;" vertex="1" parent="1">
          <mxGeometry x="300" y="600" width="140" height="50" as="geometry" />
        </mxCell>
        <mxCell id="RflRNiIDHvQTLD1srXch-66" style="edgeStyle=orthogonalEdgeStyle;rounded=0;orthogonalLoop=1;jettySize=auto;html=1;entryX=0.594;entryY=0.995;entryDx=0;entryDy=0;entryPerimeter=0;" edge="1" parent="1" source="RflRNiIDHvQTLD1srXch-34" target="RflRNiIDHvQTLD1srXch-14">
          <mxGeometry relative="1" as="geometry">
            <Array as="points">
              <mxPoint x="741" y="980" />
            </Array>
          </mxGeometry>
        </mxCell>
      </root>
    </mxGraphModel>
  </diagram>
</mxfile>
